<svg xmlns="http://www.w3.org/2000/svg" xmlns:svg="http://www.w3.org/2000/svg" style="shape-rendering:geometricPrecision;text-rendering:geometricPrecision;image-rendering:optimizeQuality;fill-rule:evenodd;clip-rule:evenodd" id="svg2" width="210mm" height="297mm" version="1.1" viewBox="0 0 21000 29700" xml:space="preserve"><metadata id="metadata18"/><defs id="defs4"><style id="style6" type="text/css">.str0,.str1{stroke:#fff;stroke-width:7.62}.str1{stroke-width:20}.fil0{fill:none}.fil1,.fil2{fill:#000}.fil1{fill-rule:nonzero}</style></defs><rect style="fill:none" id="rect10" width="4800" height="4800" x="8100" y="12450" class="fil0"/><path style="fill:#000;fill-rule:nonzero;stroke:#fff;stroke-width:7.61999989" id="path12" d="m 10500,12472 c 657,0 1251,266 1682,696 430,431 696,1025 696,1682 0,657 -266,1251 -696,1682 -431,430 -1025,696 -1682,696 -657,0 -1251,-266 -1682,-696 -430,-431 -696,-1025 -696,-1682 0,-657 266,-1251 696,-1682 431,-430 1025,-696 1682,-696 z m 1628,856 -139,139 c -29,29 -77,29 -106,0 -29,-29 -29,-77 0,-106 l 139,-139 c -381,-356 -888,-581 -1447,-599 l 0,576 c 0,42 -34,75 -75,75 -41,0 -75,-33 -75,-75 l 0,-576 c -559,18 -1066,243 -1447,599 l 139,139 c 29,29 29,77 0,106 -29,29 -77,29 -106,0 l -139,-139 c -356,381 -581,888 -599,1447 l 576,0 c 42,0 75,34 75,75 0,41 -33,75 -75,75 l -576,0 c 18,559 243,1066 599,1447 l 139,-139 c 29,-29 77,-29 106,0 29,29 29,77 0,106 l -139,139 c 381,357 888,581 1447,599 l 0,-576 c 0,-42 34,-75 75,-75 41,0 75,33 75,75 l 0,576 c 559,-18 1066,-242 1447,-599 l -139,-139 c -29,-29 -29,-77 0,-106 29,-29 77,-29 106,0 l 139,139 c 357,-381 581,-888 599,-1447 l -576,0 c -42,0 -75,-34 -75,-75 0,-41 33,-75 75,-75 l 576,0 c -18,-559 -242,-1066 -599,-1447 z" class="fil1 str0"/><circle style="fill:#000;stroke:#fff;stroke-width:20" id="circle14" cx="6773" cy="14818" r="202" class="fil2 str1"/></svg>